<svg width="809" height="676" viewBox="0 0 809 676" fill="none" xmlns="http://www.w3.org/2000/svg">
<path d="M0.996338 624.001L139.575 538.327C177.971 514.59 196.67 468.794 185.862 424.966L178.603 395.53C166.872 347.962 189.931 298.658 233.959 277.167L250.478 269.105C272.452 258.38 289.944 240.255 299.882 217.914L313.81 186.603C333.291 142.81 380.178 118.002 427.343 126.533L558.588 150.271C603.67 158.425 648.777 136.118 669.663 95.3426L682.77 69.751C703.921 28.4564 749.867 6.16659 795.393 15.1146L863.496 28.5005" stroke="#D9D9D9" stroke-width="1.4" stroke-linejoin="round"/>
<path d="M24.9963 650.001L163.575 564.327C201.971 540.59 220.67 494.794 209.862 450.966L202.603 421.53C190.872 373.962 213.931 324.658 257.959 303.167L274.478 295.105C296.452 284.38 313.944 266.255 323.882 243.914L337.81 212.603C357.291 168.81 404.178 144.002 451.343 152.533L582.588 176.271C627.67 184.425 672.777 162.118 693.663 121.343L706.77 95.751C727.921 54.4564 773.867 32.1666 819.393 41.1146L887.496 54.5005" stroke="#D9D9D9" stroke-width="1.4" stroke-linejoin="round"/>
<path d="M49 675L187.579 589.327C225.975 565.589 244.674 519.793 233.865 475.965L226.606 446.53C214.875 398.962 237.935 349.657 281.963 328.167L298.481 320.104C320.455 309.379 337.948 291.254 347.886 268.913L361.814 237.602C381.295 193.809 428.182 169.002 475.347 177.532L606.592 201.27C651.673 209.424 696.781 187.118 717.666 146.342L730.774 120.75C751.925 79.4558 797.871 57.166 843.396 66.1141L911.5 79.5" stroke="#D9D9D9" stroke-width="1.4" stroke-linejoin="round"/>
</svg>
